# xmcd
#
# Track frame offsets:
#	150
#	11139
#	28038
#	41134
#	50716
#	61420
#	73751
#	89020
#	99320
#	111320
#	126910
#	137044
#
# Disc length: 2013 seconds
# Revision: 0
# Processed by: cddbd v1.5.2PL0 Copyright (c) Steve Scherf et al.
# Submitted via: dBpowerAMP V12.0
#
DISCID=b407db0c
DTITLE=Various Artist - Foggy Mountain Special: A Bluegrass Tribute To Earl Scruggs
DYEAR=2012
DGENRE=Country
TTITLE0=Flint Hill Special
TTITLE1=Reuben
TTITLE2=Foggy Mountain Special
TTITLE3=Randy Lynn Rag
TTITLE4=Sally Goodin
TTITLE5=Pike County Breakdown
TTITLE6=Foggy Mountain Rock
TTITLE7=Nashville Skyline Rag
TTITLE8=Earl's Breakdown
TTITLE9=Steel Guitar Rag
TTITLE10=Ground Speed
TTITLE11=Foggy Mountain Breakdown
EXTD=
EXTT0=
EXTT1=
EXTT2=
EXTT3=
EXTT4=
EXTT5=
EXTT6=
EXTT7=
EXTT8=
EXTT9=
EXTT10=
EXTT11=
PLAYORDER=
